<?xml version="1.0" encoding="UTF-8" standalone="no"?><svg xmlns="http://www.w3.org/2000/svg" xmlns:xlink="http://www.w3.org/1999/xlink" fill="#000000" height="255.1" preserveAspectRatio="xMidYMid meet" version="1" viewBox="86.1 85.0 253.0 255.1" width="253" zoomAndPan="magnify"><g id="change1_1"><path d="M209.541,268.441c-15.544,0-42.262-1.103-46.554-8.483c-3.724-6.403-5.177-30.94-5.29-50.007 c-0.075-12.673,0.338-42.677,5.77-47.58c5.897-5.322,42.22-5.592,49.442-5.592c9.779,0,42.165,0.398,48.308,5.53 c5.851,4.887,6.41,32.433,6.222,48.418c-0.182,15.506-1.602,43.357-5.773,49.393 C256.077,268.208,214.287,268.441,209.541,268.441z M212.909,161.724c-28.517,0-44.142,2.524-46.128,4.317 c-1.694,1.59-4.316,14.938-4.138,43.983c0.14,22.763,2.125,43.16,4.619,47.446c1.354,2.329,14.03,6.024,42.279,6.024 c28.19,0,46.309-3.658,48.057-6.187c2.175-3.147,4.602-21.454,4.897-46.64c0.345-29.472-2.545-42.976-4.448-44.565 C255.504,163.981,238.821,161.724,212.909,161.724z" fill="#a6a6a6"/></g><g id="change1_2"><path d="M295.612,231.75h-30.618c-1.366,0-2.473-1.106-2.473-2.473c0-1.365,1.107-2.473,2.473-2.473h30.618 c1.366,0,2.473,1.107,2.473,2.473C298.084,230.643,296.978,231.75,295.612,231.75z" fill="#a6a6a6"/></g><g id="change1_3"><path d="M295.612,183.049h-30.618c-1.366,0-2.473-1.106-2.473-2.473c0-1.365,1.107-2.473,2.473-2.473h30.618 c1.366,0,2.473,1.107,2.473,2.473C298.084,181.943,296.978,183.049,295.612,183.049z" fill="#a6a6a6"/></g><g id="change1_4"><path d="M283.774,199.544H266.76c-1.366,0-2.473-1.107-2.473-2.473s1.107-2.473,2.473-2.473h17.015 c1.366,0,2.473,1.107,2.473,2.473S285.14,199.544,283.774,199.544z" fill="#a6a6a6"/></g><g id="change1_5"><path d="M299.097,217.011h-34.103c-1.366,0-2.473-1.106-2.473-2.472c0-1.366,1.107-2.473,2.473-2.473h32.079 l25.416-25.005c0.973-0.958,2.539-0.945,3.497,0.028c0.957,0.974,0.944,2.539-0.029,3.497L299.097,217.011z" fill="#a6a6a6"/></g><g id="change1_6"><path d="M303.383,246.087h-38.389c-1.366,0-2.473-1.106-2.473-2.473c0-1.365,1.107-2.473,2.473-2.473h38.389 c1.365,0,2.472,1.107,2.472,2.473C305.855,244.981,304.748,246.087,303.383,246.087z" fill="#a6a6a6"/></g><g id="change1_7"><path d="M311.153,253.858c-5.648,0-10.243-4.595-10.243-10.243c0-5.647,4.595-10.243,10.243-10.243 s10.243,4.596,10.243,10.243C321.396,249.263,316.801,253.858,311.153,253.858z M311.153,238.317 c-2.921,0-5.298,2.377-5.298,5.298c0,2.922,2.377,5.299,5.298,5.299c2.922,0,5.298-2.377,5.298-5.299 C316.452,240.694,314.075,238.317,311.153,238.317z" fill="#a6a6a6"/></g><g id="change1_8"><path d="M328.872,191.458c-5.648,0-10.243-4.596-10.243-10.243c0-5.648,4.595-10.243,10.243-10.243 c5.648,0,10.244,4.595,10.244,10.243C339.116,186.863,334.521,191.458,328.872,191.458z M328.872,175.917 c-2.921,0-5.298,2.377-5.298,5.299c0,2.921,2.376,5.298,5.298,5.298c2.922,0,5.298-2.377,5.298-5.298 C334.17,178.293,331.794,175.917,328.872,175.917z" fill="#a6a6a6"/></g><g id="change1_9"><path d="M229.44,161.635c-1.366,0-2.473-1.106-2.473-2.473v-30.618c0-1.365,1.107-2.473,2.473-2.473 s2.473,1.107,2.473,2.473v30.618C231.913,160.529,230.806,161.635,229.44,161.635z" fill="#a6a6a6"/></g><g id="change1_10"><path d="M180.74,161.635c-1.366,0-2.472-1.106-2.472-2.473v-30.618c0-1.365,1.106-2.473,2.472-2.473 s2.473,1.107,2.473,2.473v30.618C183.212,160.529,182.105,161.635,180.74,161.635z" fill="#a6a6a6"/></g><g id="change1_11"><path d="M197.235,159.87c-1.366,0-2.473-1.107-2.473-2.473v-17.015c0-1.365,1.107-2.473,2.473-2.473 s2.473,1.107,2.473,2.473v17.015C199.708,158.762,198.601,159.87,197.235,159.87z" fill="#a6a6a6"/></g><g id="change1_12"><path d="M214.703,161.635c-1.366,0-2.473-1.106-2.473-2.473v-32.078l-25.005-25.416 c-0.958-0.974-0.945-2.539,0.029-3.497c0.973-0.958,2.539-0.945,3.497,0.028l26.425,26.86v34.103 C217.175,160.529,216.068,161.635,214.703,161.635z" fill="#a6a6a6"/></g><g id="change1_13"><path d="M243.778,161.635c-1.365,0-2.472-1.106-2.472-2.473v-38.389c0-1.365,1.107-2.473,2.472-2.473 c1.366,0,2.473,1.107,2.473,2.473v38.389C246.25,160.529,245.144,161.635,243.778,161.635z" fill="#a6a6a6"/></g><g id="change1_14"><path d="M243.778,123.247c-5.648,0-10.243-4.596-10.243-10.243c0-5.648,4.595-10.243,10.243-10.243 c5.648,0,10.244,4.595,10.244,10.243C254.021,118.651,249.426,123.247,243.778,123.247z M243.778,107.705 c-2.921,0-5.298,2.377-5.298,5.299c0,2.921,2.376,5.298,5.298,5.298c2.922,0,5.298-2.377,5.298-5.298 C249.076,110.082,246.7,107.705,243.778,107.705z" fill="#a6a6a6"/></g><g id="change1_15"><path d="M181.378,105.528c-5.648,0-10.243-4.596-10.243-10.243c0-5.648,4.595-10.243,10.243-10.243 s10.243,4.595,10.243,10.243C191.621,100.932,187.026,105.528,181.378,105.528z M181.378,89.986 c-2.921,0-5.298,2.377-5.298,5.299c0,2.921,2.377,5.298,5.298,5.298c2.922,0,5.298-2.377,5.298-5.298 C186.676,92.363,184.3,89.986,181.378,89.986z" fill="#a6a6a6"/></g><g id="change1_16"><path d="M160.207,198.396h-30.618c-1.366,0-2.473-1.107-2.473-2.473c0-1.366,1.107-2.473,2.473-2.473h30.618 c1.366,0,2.473,1.106,2.473,2.473C162.679,197.289,161.572,198.396,160.207,198.396z" fill="#a6a6a6"/></g><g id="change1_17"><path d="M160.207,247.096h-30.618c-1.366,0-2.473-1.107-2.473-2.473c0-1.366,1.107-2.473,2.473-2.473h30.618 c1.366,0,2.473,1.106,2.473,2.473C162.679,245.989,161.572,247.096,160.207,247.096z" fill="#a6a6a6"/></g><g id="change1_18"><path d="M158.44,230.601h-17.015c-1.366,0-2.473-1.107-2.473-2.473s1.107-2.473,2.473-2.473h17.015 c1.366,0,2.473,1.107,2.473,2.473S159.806,230.601,158.44,230.601z" fill="#a6a6a6"/></g><g id="change1_19"><path d="M100.978,238.848c-0.639,0-1.278-0.246-1.763-0.738c-0.958-0.974-0.944-2.539,0.029-3.497l26.86-26.424 h34.103c1.366,0,2.473,1.106,2.473,2.472c0,1.366-1.107,2.473-2.473,2.473h-32.079l-25.416,25.005 C102.23,238.612,101.604,238.848,100.978,238.848z" fill="#a6a6a6"/></g><g id="change1_20"><path d="M160.207,184.058h-38.389c-1.366,0-2.472-1.107-2.472-2.473c0-1.366,1.106-2.473,2.472-2.473h38.389 c1.366,0,2.473,1.106,2.473,2.473C162.679,182.951,161.572,184.058,160.207,184.058z" fill="#a6a6a6"/></g><g id="change1_21"><path d="M114.047,191.829c-5.648,0-10.244-4.596-10.244-10.243c0-5.648,4.596-10.243,10.244-10.243 s10.243,4.595,10.243,10.243C124.29,187.233,119.695,191.829,114.047,191.829z M114.047,176.287 c-2.922,0-5.298,2.377-5.298,5.299c0,2.921,2.376,5.298,5.298,5.298c2.921,0,5.298-2.377,5.298-5.298 C119.345,178.664,116.968,176.287,114.047,176.287z" fill="#a6a6a6"/></g><g id="change1_22"><path d="M96.328,254.228c-5.648,0-10.244-4.595-10.244-10.243c0-5.647,4.595-10.243,10.244-10.243 c5.648,0,10.243,4.596,10.243,10.243C106.571,249.633,101.976,254.228,96.328,254.228z M96.328,238.687 c-2.922,0-5.298,2.377-5.298,5.298c0,2.922,2.376,5.299,5.298,5.299c2.921,0,5.298-2.377,5.298-5.299 C101.626,241.064,99.25,238.687,96.328,238.687z" fill="#a6a6a6"/></g><g id="change1_23"><path d="M195.76,299.128c-1.366,0-2.473-1.107-2.473-2.473v-30.618c0-1.366,1.107-2.473,2.473-2.473 s2.473,1.106,2.473,2.473v30.618C198.232,298.021,197.125,299.128,195.76,299.128z" fill="#a6a6a6"/></g><g id="change1_24"><path d="M244.46,299.128c-1.366,0-2.473-1.107-2.473-2.473v-30.618c0-1.366,1.107-2.473,2.473-2.473 s2.472,1.106,2.472,2.473v30.618C246.933,298.021,245.826,299.128,244.46,299.128z" fill="#a6a6a6"/></g><g id="change1_25"><path d="M227.965,287.291c-1.366,0-2.473-1.107-2.473-2.473v-17.015c0-1.365,1.107-2.473,2.473-2.473 s2.473,1.107,2.473,2.473v17.015C230.438,286.183,229.331,287.291,227.965,287.291z" fill="#a6a6a6"/></g><g id="change1_26"><path d="M236.213,327.739c-0.64,0-1.279-0.247-1.763-0.738l-26.425-26.86v-34.103 c0-1.366,1.106-2.473,2.472-2.473s2.473,1.106,2.473,2.473v32.078l25.005,25.416c0.958,0.974,0.945,2.539-0.029,3.497 C237.465,327.502,236.839,327.739,236.213,327.739z" fill="#a6a6a6"/></g><g id="change1_27"><path d="M181.422,306.899c-1.366,0-2.473-1.107-2.473-2.473v-38.389c0-1.366,1.107-2.473,2.473-2.473 c1.365,0,2.472,1.106,2.472,2.473v38.389C183.895,305.792,182.788,306.899,181.422,306.899z" fill="#a6a6a6"/></g><g id="change1_28"><path d="M181.422,322.44c-5.648,0-10.244-4.595-10.244-10.243c0-5.647,4.595-10.243,10.244-10.243 c5.648,0,10.243,4.596,10.243,10.243C191.666,317.845,187.07,322.44,181.422,322.44z M181.422,306.899 c-2.922,0-5.298,2.377-5.298,5.298c0,2.922,2.376,5.299,5.298,5.299c2.921,0,5.298-2.377,5.298-5.299 C186.72,309.276,184.344,306.899,181.422,306.899z" fill="#a6a6a6"/></g><g id="change1_29"><path d="M243.822,340.159c-5.648,0-10.243-4.595-10.243-10.243c0-5.647,4.595-10.243,10.243-10.243 s10.243,4.596,10.243,10.243C254.065,335.564,249.47,340.159,243.822,340.159z M243.822,324.618 c-2.922,0-5.298,2.377-5.298,5.298c0,2.922,2.376,5.299,5.298,5.299c2.921,0,5.298-2.377,5.298-5.299 C249.121,326.995,246.744,324.618,243.822,324.618z" fill="#a6a6a6"/></g><g id="change2_1"><path d="M211.389,222.815c-5.771,0-10.466-4.695-10.466-10.467c0-5.771,4.695-10.466,10.466-10.466 s10.466,4.695,10.466,10.466C221.855,218.12,217.16,222.815,211.389,222.815z M211.389,206.827 c-3.044,0-5.521,2.478-5.521,5.521c0,3.045,2.477,5.521,5.521,5.521s5.521-2.477,5.521-5.521 C216.91,209.304,214.433,206.827,211.389,206.827z" fill="#d9d9d9"/></g><g id="change2_2"><path d="M212.776,244.304c-1.336,0-4.607-0.187-6.119-1.919c-0.461-0.528-1.284-1.472-1.788-7.078 c-1.038-0.295-2.056-0.661-3.048-1.096c-4.009,3.195-5.349,3.423-5.951,3.524c-0.204,0.034-0.414,0.052-0.625,0.052 c-2.172,0-4.246-1.873-5.29-2.989c-1.038-1.11-2.757-3.278-2.619-5.321c0.061-0.892,0.38-2.136,3.17-5.576 c-0.662-1.193-1.218-2.439-1.665-3.728c-3.833-0.494-5.142-1.111-5.845-1.61c-1.268-0.9-1.973-2.597-2.096-5.043 c-0.042-0.827-0.145-5.045,1.901-6.831c0.655-0.571,1.718-1.207,5.875-1.667c0.44-1.366,1.003-2.689,1.686-3.956 c-2.29-2.985-2.768-4.324-2.911-5.163c-0.243-1.433,0.359-3.019,1.79-4.712c1.202-1.423,3.865-3.83,6.225-3.83 c0.083,0,0.164,0.002,0.243,0.008c0.906,0.062,2.173,0.391,5.722,3.289c1.138-0.522,2.314-0.955,3.521-1.291 c0.572-4.788,1.329-5.854,1.672-6.338c1.241-1.747,3.815-2.113,5.755-2.113c1.336,0,4.607,0.187,6.119,1.919 c0.471,0.539,1.314,1.507,1.814,7.381c0.862,0.348,1.704,0.747,2.521,1.194c4.382-3.575,5.862-3.826,6.452-3.926 c0.204-0.035,0.414-0.053,0.626-0.053c2.171,0,4.245,1.873,5.288,2.989c1.038,1.11,2.759,3.279,2.621,5.321 c-0.049,0.712-0.146,2.139-4.527,7.197c0.262,0.63,0.512,1.282,0.721,1.847c2.859,0.248,6.599,0.773,8.145,1.871 c1.269,0.9,1.974,2.597,2.097,5.043c0.041,0.827,0.145,5.045-1.902,6.831c-0.549,0.479-1.65,1.439-8.519,1.906 c-0.212,0.603-0.438,1.202-0.637,1.714c1.859,2.204,4.186,5.273,4.507,7.166c0.243,1.433-0.359,3.019-1.791,4.712 c-1.201,1.423-3.864,3.83-6.225,3.83c0,0,0,0,0,0c-0.082,0-0.164-0.003-0.243-0.008c-0.7-0.048-2.097-0.142-6.999-4.356 c-0.681,0.356-1.379,0.68-2.09,0.969c-0.568,5.956-1.502,7.271-1.826,7.727C217.291,243.937,214.717,244.304,212.776,244.304z M210.427,239.049c0.434,0.142,1.291,0.31,2.349,0.31c0.926,0,1.519-0.126,1.803-0.219c0.297-0.816,0.732-3.287,0.98-6.638 l0.123-1.654l1.577-0.514c1.463-0.478,2.869-1.136,4.177-1.958l1.578-0.992l1.388,1.244c2.769,2.482,4.589,3.789,5.36,4.204 c0.945-0.448,2.599-2.025,2.997-2.87c-0.43-0.943-2.327-3.502-4.268-5.696l-1.025-1.159l0.595-1.43 c0.011-0.026,1.125-2.707,1.558-4.271l0.477-1.722l1.785-0.088c3.545-0.175,6.169-0.539,7.148-0.837 c0.352-0.984,0.407-3.271,0.09-4.149c-0.972-0.363-4.122-0.831-7.046-1.01l-1.658-0.103l-0.533-1.573 c-0.274-0.811-1.113-3.158-1.697-4.281l-0.79-1.52l1.145-1.273c2.519-2.803,3.842-4.646,4.261-5.425 c-0.448-0.944-2.022-2.596-2.867-2.995c-0.67,0.314-2.483,1.508-5.253,3.88l-1.409,1.206l-1.552-1.014 c-1.406-0.92-2.925-1.646-4.513-2.158l-1.6-0.517l-0.108-1.678c-0.222-3.438-0.557-5.26-0.77-5.98 c-0.434-0.142-1.29-0.311-2.349-0.311c-0.921,0-1.514,0.125-1.799,0.218c-0.202,0.578-0.589,2.257-0.89,5.514l-0.17,1.842 l-1.814,0.357c-1.901,0.375-3.727,1.038-5.424,1.973l-1.501,0.826l-1.3-1.115c-2.416-2.071-3.607-2.824-4.09-3.085 c-0.942,0.449-2.581,2.011-2.987,2.856c0.195,0.403,0.849,1.575,2.864,4.05l1.129,1.386l-0.962,1.506 c-1.127,1.765-1.945,3.688-2.433,5.714l-0.418,1.737l-1.781,0.147c-2.892,0.239-4.172,0.529-4.675,0.68 c-0.349,0.985-0.403,3.256-0.09,4.138c0.529,0.185,2.041,0.544,4.943,0.838l1.697,0.172l0.442,1.647 c0.524,1.957,1.359,3.81,2.481,5.507l1.029,1.556l-1.213,1.416c-2.051,2.396-2.798,3.578-3.058,4.059 c0.45,0.944,2.019,2.59,2.863,2.99c0.556-0.266,2.061-1.204,4.668-3.383l1.269-1.061l1.464,0.768 c1.6,0.839,3.301,1.44,5.057,1.789l1.861,0.37l0.125,1.893C209.886,236.542,210.217,238.336,210.427,239.049z" fill="#d9d9d9"/></g></svg>